<svg height='100px' width='100px'  fill="#000000" xmlns:dc="http://purl.org/dc/elements/1.1/" xmlns:cc="http://creativecommons.org/ns#" xmlns:rdf="http://www.w3.org/1999/02/22-rdf-syntax-ns#" xmlns:svg="http://www.w3.org/2000/svg" xmlns="http://www.w3.org/2000/svg" xmlns:sodipodi="http://sodipodi.sourceforge.net/DTD/sodipodi-0.dtd" xmlns:inkscape="http://www.inkscape.org/namespaces/inkscape" viewBox="0 0 80 80" version="1.1" x="0px" y="0px"><path style="" d="m 42.3125,21.59375 c -0.653941,0 -1.229694,0.29939 -1.625,0.75 -0.216039,0.143851 -0.400479,0.346966 -0.53125,0.59375 l -6.5,12.28125 -9.71875,6.375 -0.46875,-0.71875 c -0.151564,-0.311241 -0.497961,-0.516513 -0.84375,-0.5 l -0.71875,-1.09375 c -0.180219,-0.281399 -0.182821,-0.896653 0.03125,-1.65625 0.213946,-0.759587 0.596855,-1.611705 1,-2.53125 0.403146,-0.919546 0.821905,-1.895765 1.0625,-2.75 0.2406,-0.854234 0.326758,-1.655896 -0.09375,-2.3125 L 22.6875,28.0625 c -0.291224,-0.454746 -0.529899,-0.75976 -0.75,-1.03125 -0.110075,-0.135726 -0.212407,-0.276174 -0.34375,-0.375 -0.131345,-0.09883 -0.271145,-0.151801 -0.4375,-0.1875 -0.252875,-0.0542 -0.616411,0.02929 -0.8125,0.09375 L 19.375,25.09375 19.15625,24.6875 18.75,24.96875 l -10.125,6.5 -0.375,0.21875 0.25,0.375 2.15625,3.40625 0.25,0.34375 0.375,-0.21875 10.125,-6.5 0.375,-0.21875 -0.21875,-0.4375 -0.75,-1.09375 0.125,-0.03125 0.3125,0.28125 c 0,0 0.396275,0.545253 0.6875,1 L 23.15625,30.5 c 0.180219,0.281398 0.182697,0.865413 -0.03125,1.625 -0.213946,0.759589 -0.596855,1.642951 -1,2.5625 -0.403146,0.919544 -0.790653,1.864513 -1.03125,2.71875 -0.240599,0.854231 -0.358008,1.687144 0.0625,2.34375 l 0.71875,1.125 c -0.163785,0.317247 -0.111837,0.73283 0.125,1 l 0.4375,0.6875 c -0.602574,0.5199 -0.729234,1.407831 -0.28125,2.09375 l 1.15625,1.8125 c 0.439953,0.673389 1.289394,0.878283 2,0.5625 L 25.59375,47.5 c 0.267185,0.423512 0.922402,0.532715 1.3125,0.21875 0.350631,-0.285091 0.423623,-0.854427 0.15625,-1.21875 l -0.25,-0.40625 10.34375,-6.75 c 0.02817,-0.01799 0.06655,-0.04341 0.09375,-0.0625 0.366832,-0.259163 0.620806,-0.591781 0.8125,-0.96875 0.05111,-0.07265 0.111734,-0.13982 0.15625,-0.21875 0.01175,-0.02075 0.02002,-0.04131 0.03125,-0.0625 l 1.90625,-3.59375 0,22.625 c 0,0.451395 0.170751,0.842556 0.40625,1.1875 -0.07281,-10.817232 -0.28125,-19.90625 -0.28125,-19.90625 0,0 5,-2 5,-4 l 0,-12.75 z m 4.96875,0 0,8.75 8,0 0,-8.75 z m 10,0 0,1.59375 C 57.139965,23.850951 56.94022,24.784652 57,25 l 0.28125,1.03125 0,8.3125 c 0,1.824615 3.702167,3.569022 4.375,3.875 l 0,-3.21875 c 2.19764,4.337308 4.432404,8.65884 6.65625,13 -2.675431,1.230067 -4.53125,3.927848 -4.53125,7.0625 l 0,3.71875 0.59375,0 0,8.09375 c 0,1.291601 3.133007,2.3125 7.15625,2.3125 4.023025,0 7.1875,-1.021118 7.1875,-2.3125 l 0,-8.09375 0.59375,0 0,-3.71875 c 0,-3.411034 -2.213782,-6.330387 -5.28125,-7.375 C 74.018797,47.46852 73.982244,47.239899 73.875,47.03125 69.63234,38.922021 65.533656,30.76433 61.40625,22.59375 61.254873,22.294737 61.020395,22.088748 60.75,21.9375 c -0.0084,-0.0047 -0.02281,0.0045 -0.03125,0 -0.07647,-0.05042 -0.166962,-0.08441 -0.25,-0.125 C 60.178116,21.670449 59.847561,21.59375 59.5,21.59375 z M 18.875,25.9375 l 1.65625,2.65625 -9.375,6 -1.6875,-2.625 z m 42.78125,19.90625 c -0.103048,3.448981 -0.203908,7.520284 -0.3125,12.3125 0.186136,-0.321558 0.3125,-0.69597 0.3125,-1.09375 z m 12.25,2.5625 c 2.647353,0.94113 4.576714,3.379654 4.71875,6.3125 -0.963012,-1.154126 -4.104885,-1.78125 -7.09375,-1.78125 -2.989083,0 -6.130738,0.626905 -7.09375,1.78125 0.132323,-2.732302 1.817514,-5.058333 4.1875,-6.125 L 69.09375,49.5 c 0.408126,0.795095 1.361381,1.096054 2.15625,0.6875 l 1.90625,-0.96875 c 0.347732,-0.1788 0.607448,-0.481521 0.75,-0.8125 z m -2.375,5.1875 c 4.171669,0 6.75,1.097848 6.75,1.875 0,0.31781 -0.457435,0.674636 -1.25,1 L 76.9375,57.0625 c -0.370148,1.792408 -1.432821,4.408411 -2.59375,4.28125 -1.160927,-0.127161 -0.852114,-2.476191 -1.46875,-1.71875 -0.616635,0.757441 -0.412251,4.372997 -0.40625,5.34375 0.006,0.970754 -0.541029,1.106556 -1.34375,0.125 C 70.322277,64.112192 71.465455,60.69935 71,59.53125 70.534545,58.36315 69.952229,59.299241 69.46875,59.0625 68.745589,58.708395 67.5,57.65625 67.5,57.65625 l -1.34375,-1.125 c -0.854707,-0.33461 -1.34375,-0.731808 -1.34375,-1.0625 0,-0.777152 2.547081,-1.875 6.71875,-1.875 z m -21.25,5.25 0,0.375 1.59375,0 0,13.71875 0,0.03125 c 7.67e-4,0.138339 0.01806,0.271296 0.03125,0.40625 -0.01072,0.125535 -0.03125,0.246602 -0.03125,0.375 l 0,20.78125 c 0,0.893743 0.731275,1.59375 1.625,1.59375 l 5.375,0 c 0.893725,0 1.59375,-0.700008 1.59375,-1.59375 l 0,-2.15625 -8.5,0.21875 0.25,-33.75 z m -9.0625,33.625 0,2.25 c 0,0.89373 0.731262,1.59375 1.625,1.59375 l 5.375,0 c 0.893725,0 1.59375,-0.70002 1.59375,-1.59375 l 0,-2.25 z" transform="scale(0.8,0.8)" fill="#000000" fill-opacity="1" stroke="none"></path><path d="m 41.008241,3.5056878 c -3.56383,0 -6.45291,2.889072 -6.45291,6.4529154 0,0.0044 -1e-5,0.009 0,0.01344 -0.005,2.82e-4 -0.008,-3.25e-4 -0.0135,0 -0.0595,2.0344788 -0.19338,3.4169758 -0.37642,4.7455848 -0.17287,0.564163 -1.14271,-0.04036 -2.00309,-0.470529 0.39924,1.98695 1.12659,2.589827 2.13753,2.594612 0.84213,-0.03037 1.81577,-0.80206 1.73422,-2.594612 3.1e-4,-0.05623 -6.2e-4,-0.129487 0,-0.188206 1.18355,1.434144 2.96946,2.352623 4.97412,2.352623 1.99099,0 3.76354,-0.908447 4.94725,-2.32574 6.1e-4,0.05004 -2.7e-4,0.113094 0,0.161323 -0.0816,1.792552 0.90551,2.564245 1.74766,2.594612 1.01094,-0.0049 1.72482,-0.607662 2.12408,-2.594612 -0.86038,0.430177 -1.8302,1.034692 -2.00308,0.470529 -0.17783,-1.290707 -0.31423,-2.643966 -0.37643,-4.58426 0.002,-0.05879 0.0134,-0.115588 0.0134,-0.1747688 0,-3.5638494 -2.88908,-6.4529154 -6.45293,-6.4529154 z" style="" fill="#000000" fill-opacity="1" stroke="none"></path><path style="text-indent:0;text-transform:none;direction:ltr;block-progression:tb;baseline-shift:baseline;color:#000000;enable-background:accumulate;" d="M 44.75 20.875 L 44.75 21.3125 L 44.75 34.34375 C 44.75 34.635416 44.54661 35.04714 44.125 35.46875 C 43.70339 35.89036 43.135234 36.32511 42.53125 36.6875 C 41.323284 37.41228 40.125 37.875 40.125 37.875 L 39.75 38 L 39.75 38.375 C 39.75 38.375 39.877271 44.980287 39.96875 53.21875 C 38.152914 54.242012 37.52072 55.814457 37.78125 56.9375 C 37.8483 57.226504 37.942714 57.496241 38.1875 57.6875 C 38.432286 57.878759 38.777785 57.946294 39.09375 57.875 C 39.402867 57.805251 39.709195 57.63643 40 57.375 C 40.074269 66.966672 40.076762 78.093187 39.71875 85.625 C 39.612375 87.863085 39.09375 92.4375 39.09375 92.4375 L 39.03125 92.96875 L 39.625 92.96875 L 50.3125 92.96875 L 50.78125 92.96875 L 50.78125 92.46875 L 50.78125 59.34375 L 51.71875 59.34375 L 51.5 92.625 L 51.5 93.125 L 52 93.125 L 61.53125 92.84375 L 62.03125 92.84375 L 62 92.3125 C 62 92.3125 61.639906 88.019689 61.59375 85.90625 C 61.248368 70.091225 62.375 38.375 62.375 38.375 L 62.4375 38 L 62.125 37.875 C 62.125 37.875 60.953495 37.40979 59.84375 36.6875 C 59.288878 36.326355 58.762082 35.888645 58.375 35.46875 C 57.987918 35.048855 57.78125 34.651696 57.78125 34.34375 L 57.78125 21.3125 L 57.78125 20.875 L 57.25 20.875 L 55.28125 20.875 L 54.75 20.875 L 54.75 21.3125 L 54.75 29.84375 L 47.78125 29.84375 L 47.78125 21.3125 L 47.78125 20.875 L 47.25 20.875 L 45.28125 20.875 L 44.75 20.875 z M 45.78125 21.84375 L 46.8125 21.84375 L 46.8125 30.34375 L 46.8125 30.875 L 47.25 30.875 L 55.28125 30.875 L 55.78125 30.875 L 55.78125 30.34375 L 55.78125 21.84375 L 56.8125 21.84375 L 56.8125 34.34375 C 56.8125 35.035804 57.179092 35.607395 57.65625 36.125 C 58.133408 36.642605 58.715052 37.111145 59.3125 37.5 C 60.368529 38.187328 61.177132 38.52278 61.40625 38.625 C 61.387025 39.170984 60.28099 70.154036 60.625 85.90625 C 60.668788 87.911049 60.920288 91.223364 60.96875 91.84375 L 52.46875 92.125 L 52.75 58.8125 L 52.75 58.375 L 52.21875 58.375 L 50.3125 58.375 L 49.8125 58.375 L 49.8125 58.8125 L 49.8125 92 L 40.125 92 C 40.197812 91.376461 40.647995 87.802349 40.75 85.65625 C 41.494311 69.997523 40.793387 39.170992 40.78125 38.625 C 41.038694 38.518937 41.928007 38.211945 43.0625 37.53125 C 43.708517 37.14364 44.32786 36.70339 44.84375 36.1875 C 45.35964 35.67161 45.78125 35.052084 45.78125 34.34375 L 45.78125 21.84375 z M 47.125 32.34375 A 0.50005001 0.50005001 0 0 0 46.8125 32.84375 L 46.8125 37.84375 A 0.50005001 0.50005001 0 1 0 47.78125 37.84375 L 47.78125 32.84375 A 0.50005001 0.50005001 0 0 0 47.1875 32.34375 A 0.50005001 0.50005001 0 0 0 47.125 32.34375 z M 49.75 32.34375 L 49.75 32.84375 L 49.75 36.875 L 49.75 37.125 L 49.96875 37.21875 C 51.014508 38.102615 52.027716 38.496678 53 38.4375 C 53.972284 38.378325 54.853471 37.888209 55.625 37.21875 L 55.78125 37.0625 L 55.78125 36.875 L 55.78125 32.84375 L 55.78125 32.34375 L 55.28125 32.34375 L 50.28125 32.34375 L 49.75 32.34375 z M 50.78125 33.375 L 54.75 33.375 L 54.75 36.5625 C 54.141076 37.05157 53.55116 37.4314 52.9375 37.46875 C 52.307961 37.507066 51.609952 37.213094 50.78125 36.5625 L 50.78125 33.375 z M 39.96875 54.40625 C 39.974179 54.941004 39.995086 55.263943 40 55.8125 C 39.500042 56.611712 39.050443 56.873714 38.90625 56.90625 C 38.832188 56.922963 38.8274 56.917875 38.8125 56.90625 C 38.7976 56.894625 38.7791 56.844175 38.75 56.71875 C 38.649951 56.287479 38.873151 55.232967 39.96875 54.40625 z " transform="scale(0.8,0.8)" fill="#000000" fill-opacity="1" fill-rule="nonzero" stroke="none" marker="none" visibility="visible" display="inline" overflow="visible"></path></svg>